<svg width="16" height="16" viewBox="0 0 16 16" fill="none" xmlns="http://www.w3.org/2000/svg">
<path d="M13.325 5.70312C12.2063 5.8875 10.3813 5.9375 9.16875 3.6375C7.86875 1.16563 5.76875 1.09062 4.54063 1.31562C3.94375 1.425 3.49688 1.925 3.49688 2.40937V8.55313C3.85 8.6875 4.22813 8.54688 4.325 8.52812C4.35 8.52187 4.37188 8.51875 4.4 8.5125C5.18125 8.34062 6.00625 8.25938 8.05 9.24063C10.6125 10.4688 12.8563 8.20625 13.725 6.63125C13.7875 6.52187 13.9969 6 13.9969 5.5C13.6938 5.625 13.325 5.70312 13.325 5.70312ZM2.75 1H2.25C2.1125 1 2 1.1125 2 1.25V14.75C2 14.8875 2.1125 15 2.25 15H2.75C2.8875 15 3 14.8875 3 14.75V1.25C3 1.1125 2.8875 1 2.75 1Z" fill="#3A85FF"/>
</svg>
