<svg width="16" height="17" viewBox="0 0 16 17" fill="none" xmlns="http://www.w3.org/2000/svg">
<path d="M2.66667 1.83301H13.3333C13.7015 1.83301 14 2.13149 14 2.49967V15.3505C14 15.5347 13.8507 15.6839 13.6667 15.6839C13.6199 15.6839 13.5736 15.674 13.5309 15.6549L8 13.1872L2.46915 15.6549C2.30103 15.73 2.10394 15.6545 2.02893 15.4864C2.00985 15.4436 2 15.3973 2 15.3505V2.49967C2 2.13149 2.29848 1.83301 2.66667 1.83301ZM8 9.49967L9.95927 10.5297L9.58507 8.34801L11.1702 6.80295L8.97967 6.48465L8 4.49967L7.02033 6.48465L4.82981 6.80295L6.41491 8.34801L6.04071 10.5297L8 9.49967Z" fill="#291F1F"/>
</svg>
