<svg width="16" height="17" viewBox="0 0 16 17" fill="none" xmlns="http://www.w3.org/2000/svg">
<path d="M5.2914 12.4997C5.09334 11.6513 4.20014 10.9568 3.83336 10.4991C3.1017 9.58614 2.66406 8.42734 2.66406 7.16634C2.66406 4.22082 5.05188 1.83301 7.9974 1.83301C10.9429 1.83301 13.3307 4.22082 13.3307 7.16634C13.3307 8.42801 12.8926 9.58734 12.1603 10.5006C11.7937 10.9577 10.9013 11.6514 10.7034 12.4997H5.2914ZM10.6641 13.833V14.4997C10.6641 15.2361 10.0671 15.833 9.33073 15.833H6.66406C5.92768 15.833 5.33073 15.2361 5.33073 14.4997V13.833H10.6641ZM8.66406 7.16954V4.49967L5.66406 8.50287H7.33073V11.1695L10.3307 7.16954H8.66406Z" fill="#291F1F"/>
</svg>
