<svg width="16" height="17" viewBox="0 0 16 17" fill="none" xmlns="http://www.w3.org/2000/svg">
<g clip-path="url(#clip0_4113_93166)">
<path d="M13.3359 12.9441L13.6026 13.2997C13.7131 13.4469 13.6832 13.6559 13.5359 13.7663C13.4783 13.8096 13.4081 13.833 13.3359 13.833H2.66927C2.48518 13.833 2.33594 13.6837 2.33594 13.4997C2.33594 13.4275 2.35933 13.3573 2.4026 13.2997L2.66927 12.9441V7.16634C2.66927 4.22082 5.05708 1.83301 8.0026 1.83301C10.9481 1.83301 13.3359 4.22082 13.3359 7.16634V12.9441ZM6.33594 14.4997H9.66927C9.66927 15.4201 8.92307 16.1663 8.0026 16.1663C7.08214 16.1663 6.33594 15.4201 6.33594 14.4997Z" fill="#291F1F"/>
</g>
<defs>
<clipPath id="clip0_4113_93166">
<rect width="16" height="16" fill="white" transform="translate(0 0.5)"/>
</clipPath>
</defs>
</svg>
