<svg width="16" height="17" viewBox="0 0 16 17" fill="none" xmlns="http://www.w3.org/2000/svg">
<path d="M7.9974 5.16701C10.9429 5.16701 13.3307 7.55479 13.3307 10.5003C13.3307 13.4459 10.9429 15.8337 7.9974 15.8337C5.05188 15.8337 2.66406 13.4459 2.66406 10.5003C2.66406 7.55479 5.05188 5.16701 7.9974 5.16701ZM7.9974 7.50033L7.11573 9.28679L5.14423 9.57326L6.57081 10.9639L6.23404 12.9274L7.9974 12.0003L9.76073 12.9274L9.424 10.9639L10.8506 9.57326L8.87906 9.28679L7.9974 7.50033ZM8.66406 1.83301L11.9974 1.83367V3.83367L11.0885 4.59205C10.3511 4.20548 9.5324 3.95291 8.6648 3.86667L8.66406 1.83301ZM7.33073 1.83301L7.33053 3.86661C6.463 3.95277 5.64437 4.20525 4.907 4.5917L3.9974 3.83367V1.83367L7.33073 1.83301Z" fill="#291F1F"/>
</svg>
