<svg width="16" height="17" viewBox="0 0 16 17" fill="none" xmlns="http://www.w3.org/2000/svg">
<path d="M11.3307 10.6639V15.2449C11.3307 15.429 11.1815 15.5783 10.9974 15.5783C10.937 15.5783 10.8777 15.5619 10.8259 15.5308L7.9974 13.8337L5.1689 15.5308C5.01104 15.6255 4.80628 15.5743 4.71156 15.4165C4.68048 15.3646 4.66406 15.3053 4.66406 15.2449V10.6639C3.44478 9.68653 2.66406 8.18459 2.66406 6.50033C2.66406 3.55481 5.05188 1.16699 7.9974 1.16699C10.9429 1.16699 13.3307 3.55481 13.3307 6.50033C13.3307 8.18459 12.55 9.68653 11.3307 10.6639ZM7.9974 10.5003C10.2065 10.5003 11.9974 8.70946 11.9974 6.50033C11.9974 4.29119 10.2065 2.50033 7.9974 2.50033C5.78826 2.50033 3.9974 4.29119 3.9974 6.50033C3.9974 8.70946 5.78826 10.5003 7.9974 10.5003ZM7.9974 9.16699C6.52464 9.16699 5.33073 7.97306 5.33073 6.50033C5.33073 5.02757 6.52464 3.83366 7.9974 3.83366C9.47013 3.83366 10.6641 5.02757 10.6641 6.50033C10.6641 7.97306 9.47013 9.16699 7.9974 9.16699Z" fill="#291F1F"/>
</svg>
