<svg width="16" height="17" viewBox="0 0 16 17" fill="none" xmlns="http://www.w3.org/2000/svg">
<path d="M13.336 9.16829V13.835C13.336 14.2032 13.0375 14.5016 12.6693 14.5016H3.33594C2.96775 14.5016 2.66927 14.2032 2.66927 13.835V9.16829H13.336ZM9.66928 1.83496C10.958 1.83496 12.0026 2.87963 12.0026 4.16829C12.0026 4.52643 11.922 4.86572 11.7778 5.16899L14.0026 5.16829C14.3708 5.16829 14.6693 5.46677 14.6693 5.83496V7.83495C14.6693 8.20315 14.3708 8.50162 14.0026 8.50162H2.0026C1.63442 8.50162 1.33594 8.20315 1.33594 7.83495V5.83496C1.33594 5.46677 1.63442 5.16829 2.0026 5.16829L4.22748 5.16899C4.08329 4.86572 4.0026 4.52643 4.0026 4.16829C4.0026 2.87963 5.04728 1.83496 6.33594 1.83496C6.98928 1.83496 7.57988 2.10347 8.00342 2.53615C8.42535 2.10347 9.01595 1.83496 9.66928 1.83496ZM6.33594 3.16829C5.78366 3.16829 5.33594 3.61601 5.33594 4.16829C5.33594 4.68809 5.73253 5.11526 6.23963 5.16371L6.33594 5.16829H7.33595V4.16829C7.33595 3.64849 6.93935 3.22133 6.43224 3.17287L6.33594 3.16829ZM9.66928 3.16829L9.57295 3.17287C9.09755 3.2183 8.71928 3.59658 8.67382 4.07199L8.66928 4.16829V5.16829H9.66928L9.76555 5.16371C10.2727 5.11526 10.6693 4.68809 10.6693 4.16829C10.6693 3.64849 10.2727 3.22133 9.76555 3.17287L9.66928 3.16829Z" fill="#291F1F"/>
</svg>
