<svg width="16" height="17" viewBox="0 0 16 17" fill="none" xmlns="http://www.w3.org/2000/svg">
<path d="M3.54829 4.47686C3.61578 4.4023 3.68547 4.32904 3.75736 4.25714C4.07963 3.93487 4.42945 3.65692 4.79922 3.4233C4.58993 3.36562 4.40183 3.33145 4.23695 3.31901C3.85539 3.29024 3.68829 3.38084 3.61702 3.45211C3.54575 3.52338 3.45515 3.69048 3.48393 4.07203C3.49316 4.19444 3.51437 4.32967 3.54829 4.47686ZM13.8171 9.9736C13.8582 10.0556 13.8975 10.1369 13.9352 10.2175C14.2529 10.8983 14.4627 11.5627 14.5077 12.16C14.5526 12.7544 14.4373 13.3736 13.9879 13.823C13.5385 14.2725 12.9193 14.3877 12.3249 14.3429C11.8045 14.3036 11.2331 14.1393 10.6444 13.8875L10.6427 13.8883C10.5406 13.8446 10.438 13.7983 10.335 13.7495C8.97967 13.108 7.429 11.9801 5.97327 10.5244C4.51903 9.0702 3.39205 7.52126 2.75013 6.16695C2.70119 6.06368 2.6547 5.96078 2.61086 5.85844L2.61156 5.85701C2.35877 5.26681 2.19371 4.69394 2.15437 4.17231C2.10953 3.57788 2.22478 2.95873 2.67421 2.5093C3.12365 2.05987 3.74279 1.94462 4.33722 1.98946C4.93449 2.0345 5.59893 2.24436 6.27966 2.56203C6.36169 2.60031 6.44445 2.64039 6.52787 2.68224C8.5082 2.18311 10.6936 2.70808 12.2427 4.25714C13.7921 5.80666 14.317 7.9928 13.8171 9.9736ZM13.0752 11.7026C12.8418 12.0717 12.5643 12.4207 12.2427 12.7424C12.1713 12.8137 12.0986 12.8829 12.0247 12.9499C12.1702 12.9833 12.304 13.0041 12.4252 13.0133C12.8067 13.0421 12.9739 12.9515 13.0451 12.8802C13.1164 12.8089 13.207 12.6419 13.1782 12.2603C13.1659 12.0966 13.1321 11.9101 13.0752 11.7026ZM3.75736 12.7424C2.24827 11.2333 1.71111 9.1204 2.14585 7.1814C2.86737 8.50193 3.94916 9.91453 5.26616 11.2315C6.58421 12.5496 7.99807 13.6321 9.3196 14.3537C7.38033 14.7889 5.26677 14.2519 3.75736 12.7424Z" fill="#291F1F"/>
</svg>
