<svg width="16" height="17" viewBox="0 0 16 17" fill="none" xmlns="http://www.w3.org/2000/svg">
<path d="M1.33073 6.49998H3.33073V14.5H1.33073C0.962543 14.5 0.664062 14.2015 0.664062 13.8333V7.16665C0.664062 6.79846 0.962543 6.49998 1.33073 6.49998ZM4.85932 5.63805L9.12633 1.37107C9.2436 1.25377 9.42933 1.24058 9.562 1.34011L10.1304 1.7664C10.4535 2.00875 10.5991 2.42169 10.4995 2.81311L9.7306 5.83331H13.9974C14.7338 5.83331 15.3307 6.43027 15.3307 7.16665V8.56953C15.3307 8.74373 15.2966 8.9162 15.2303 9.0772L13.1674 14.0871C13.0645 14.3369 12.8211 14.5 12.5509 14.5H5.33073C4.96254 14.5 4.66406 14.2015 4.66406 13.8333V6.10946C4.66406 5.93265 4.7343 5.76308 4.85932 5.63805Z" fill="#291F1F"/>
</svg>
