<svg width="16" height="17" viewBox="0 0 16 17" fill="none" xmlns="http://www.w3.org/2000/svg">
<path d="M4.25487 4.47906C5.28133 3.65797 6.58333 3.16699 8 3.16699C9.41667 3.16699 10.7187 3.65797 11.7451 4.47906L12.7141 3.51014L13.6569 4.45295L12.6879 5.42187C13.509 6.44832 14 7.75033 14 9.16699C14 12.4807 11.3137 15.167 8 15.167C4.68629 15.167 2 12.4807 2 9.16699C2 7.75033 2.49098 6.44832 3.31207 5.42187L2.34315 4.45295L3.28595 3.51014L4.25487 4.47906ZM8.66667 8.50033V5.49713L5.33333 9.83366H7.33333V12.8337L10.6667 8.50033H8.66667ZM5.33333 1.16699H10.6667V2.50033H5.33333V1.16699Z" fill="#291F1F"/>
</svg>
