<svg width="16" height="17" viewBox="0 0 16 17" fill="none" xmlns="http://www.w3.org/2000/svg">
<path d="M3.9974 3.16634H2.66406V1.83301H13.3307V3.16634H11.9974V4.49967C11.9974 5.57663 11.4533 6.44279 10.7681 7.15079C10.2995 7.63501 9.7294 8.08101 9.15133 8.49967C9.7294 8.91834 10.2995 9.36434 10.7681 9.84854C11.4533 10.5565 11.9974 11.4227 11.9974 12.4997V13.833H13.3307V15.1663H2.66406V13.833H3.9974V12.4997C3.9974 11.4227 4.5415 10.5565 5.22666 9.84854C5.69528 9.36434 6.26541 8.91834 6.84346 8.49967C6.26541 8.08101 5.69528 7.63501 5.22666 7.15079C4.5415 6.44279 3.9974 5.57663 3.9974 4.49967V3.16634ZM5.33073 3.16634V4.49967C5.33073 4.95643 5.50424 5.38967 5.84494 5.83301H10.1499C10.4905 5.38967 10.6641 4.95643 10.6641 4.49967V3.16634H5.33073ZM7.9974 9.31427C7.3006 9.80647 6.6694 10.275 6.1848 10.7758C6.05745 10.9074 5.94411 11.0373 5.84494 11.1663H10.1499C10.0507 11.0373 9.93733 10.9074 9.81 10.7758C9.3254 10.275 8.6942 9.80647 7.9974 9.31427Z" fill="#291F1F"/>
</svg>
