<svg width="16" height="17" viewBox="0 0 16 17" fill="none" xmlns="http://www.w3.org/2000/svg">
<path d="M6.65334 3.87295C7.41893 2.64791 8.77966 1.83301 10.3307 1.83301C12.724 1.83301 14.6641 3.77311 14.6641 6.16634C14.6641 6.88655 14.4884 7.56574 14.1775 8.16334C14.8875 8.83201 15.3307 9.78074 15.3307 10.833C15.3307 12.8581 13.6891 14.4997 11.6641 14.4997H5.9974C3.05188 14.4997 0.664062 12.1119 0.664062 9.16634C0.664062 6.22082 3.05188 3.83301 5.9974 3.83301C6.21948 3.83301 6.43839 3.84658 6.65334 3.87295ZM8.03433 4.2358C9.37573 4.79059 10.4415 5.87686 10.9691 7.23207C11.1941 7.18894 11.4265 7.16634 11.6641 7.16634C12.1541 7.16634 12.6218 7.26247 13.0491 7.43694C13.2298 7.05113 13.3307 6.62053 13.3307 6.16634C13.3307 4.50949 11.9876 3.16634 10.3307 3.16634C9.4092 3.16634 8.58466 3.58187 8.03433 4.2358Z" fill="#291F1F"/>
</svg>
