<svg width="16" height="17" viewBox="0 0 16 17" fill="none" xmlns="http://www.w3.org/2000/svg">
<g clip-path="url(#clip0_4113_93482)">
<path d="M1.92188 12.5332C2.82206 8.53762 4.7188 4.91949 7.33729 1.95354C7.40896 1.87234 7.49962 1.7721 7.60929 1.65283C7.80869 1.436 8.14609 1.42184 8.36289 1.62121C8.37389 1.63131 8.38442 1.64185 8.39449 1.65283C8.50549 1.77354 8.59722 1.87491 8.66962 1.95695C11.2865 4.92227 13.1822 8.53916 14.082 12.5332C12.6544 12.8341 11.1884 13.0312 9.69256 13.1162L8.30009 15.9012C8.21776 16.0658 8.01749 16.1326 7.85282 16.0502C7.78836 16.018 7.73602 15.9656 7.70376 15.9012L6.3113 13.1162C4.81541 13.0312 3.34951 12.8341 1.92188 12.5332ZM8.00189 10.4974C9.10649 10.4974 10.0019 9.60202 10.0019 8.49742C10.0019 7.39289 9.10649 6.49743 8.00189 6.49743C6.89736 6.49743 6.00191 7.39289 6.00191 8.49742C6.00191 9.60202 6.89736 10.4974 8.00189 10.4974Z" fill="#291F1F"/>
</g>
<defs>
<clipPath id="clip0_4113_93482">
<rect width="16" height="16" fill="white" transform="translate(0 0.5)"/>
</clipPath>
</defs>
</svg>
