<svg width="16" height="17" viewBox="0 0 16 17" fill="none" xmlns="http://www.w3.org/2000/svg">
<path d="M3.55239 11.1191C3.4087 10.4942 3.33239 9.84012 3.33239 9.16652C3.33239 5.77457 5.26749 2.87565 7.99903 1.71191C10.7306 2.87565 12.6657 5.77457 12.6657 9.16652C12.6657 9.84012 12.5894 10.4942 12.4458 11.1191L13.7925 12.3163C13.9123 12.4227 13.9393 12.5995 13.8568 12.7369L12.2187 15.4671C12.124 15.625 11.9192 15.6762 11.7614 15.5815C11.738 15.5675 11.7164 15.5506 11.6972 15.5313L10.1943 14.0285C10.0693 13.9035 9.8997 13.8332 9.7229 13.8332H6.27521C6.09839 13.8332 5.92883 13.9035 5.8038 14.0285L4.30095 15.5313C4.17077 15.6615 3.95971 15.6615 3.82954 15.5313C3.81027 15.5121 3.79343 15.4905 3.77941 15.4671L2.14127 12.7369C2.05879 12.5995 2.08584 12.4227 2.20565 12.3163L3.55239 11.1191ZM7.99903 9.16652C8.73543 9.16652 9.33237 8.56959 9.33237 7.83319C9.33237 7.09683 8.73543 6.49988 7.99903 6.49988C7.2627 6.49988 6.6657 7.09683 6.6657 7.83319C6.6657 8.56959 7.2627 9.16652 7.99903 9.16652Z" fill="#291F1F"/>
</svg>
