<svg width="16" height="17" viewBox="0 0 16 17" fill="none" xmlns="http://www.w3.org/2000/svg">
<g clip-path="url(#clip0_4113_92982)">
<path d="M5.66284 13.8368H10.3319C9.89286 14.8898 9.05033 15.7323 7.9974 16.1714C6.94446 15.7323 6.10192 14.8898 5.66284 13.8368ZM11.9974 10.3733L13.3307 11.8855V13.1702H2.66406V11.8855L3.9974 10.3733V6.50349C3.9974 4.18133 5.66701 2.20579 7.9974 1.47363C10.3278 2.20579 11.9974 4.18133 11.9974 6.50349V10.3733ZM7.9974 7.83682C8.7338 7.83682 9.33073 7.23989 9.33073 6.50349C9.33073 5.76711 8.7338 5.17016 7.9974 5.17016C7.261 5.17016 6.66406 5.76711 6.66406 6.50349C6.66406 7.23989 7.261 7.83682 7.9974 7.83682Z" fill="#291F1F"/>
</g>
<defs>
<clipPath id="clip0_4113_92982">
<rect width="16" height="16" fill="white" transform="translate(0 0.5)"/>
</clipPath>
</defs>
</svg>
