<svg width="24" height="24" viewBox="0 0 24 24" fill="none" xmlns="http://www.w3.org/2000/svg">
<path d="M6 1C3.23858 1 1 3.23858 1 6V18C1 20.7614 3.23858 23 6 23H18C20.7614 23 23 20.7614 23 18V6C23 3.23858 20.7614 1 18 1H6Z" stroke="#35BD4B" stroke-width="2"/>
<path d="M3 7C3 4.79086 4.79086 3 7 3H17C19.2091 3 21 4.79086 21 7V17C21 19.2091 19.2091 21 17 21H7C4.79086 21 3 19.2091 3 17V7Z" fill="#35BD4B"/>
<path d="M10.145 15.6067L17.221 8.5308C17.4785 8.27328 17.8963 8.27503 18.1538 8.53257C18.4145 8.79326 18.4119 9.218 18.1468 9.4741C15.8213 11.7202 15.3281 12.1957 10.7628 16.6346C10.3818 17.005 9.7738 17.0164 9.38695 16.6522C8.19119 15.5262 7.06993 14.4154 5.90217 13.2492C5.64195 12.9893 5.64287 12.5674 5.90292 12.3074C6.16298 12.0473 6.58477 12.0464 6.84482 12.3064L10.145 15.6067Z" fill="white"/>
</svg>
