<svg width="91" height="90" viewBox="0 0 91 90" fill="none" xmlns="http://www.w3.org/2000/svg">
<rect x="0.5" width="90" height="90" rx="20" fill="#3A85FF" fill-opacity="0.1"/>
<path d="M67.8286 39.125C63.9929 39.7571 57.7357 39.9286 53.5786 32.0429C49.1214 23.5679 41.9214 23.3107 37.7107 24.0821C35.6643 24.4571 34.1321 26.1714 34.1321 27.8321V48.8964C35.3429 49.3571 36.6393 48.875 36.9714 48.8107C37.0571 48.7893 37.1321 48.7786 37.2286 48.7571C39.9071 48.1679 42.7357 47.8893 49.7429 51.2536C58.5286 55.4643 66.2214 47.7071 69.2 42.3071C69.4143 41.9321 70.1321 40.1429 70.1321 38.4286C69.0929 38.8571 67.8286 39.125 67.8286 39.125ZM31.5714 23H29.8571C29.3857 23 29 23.3857 29 23.8571V70.1429C29 70.6143 29.3857 71 29.8571 71H31.5714C32.0429 71 32.4286 70.6143 32.4286 70.1429V23.8571C32.4286 23.3857 32.0429 23 31.5714 23Z" fill="#3A85FF"/>
</svg>
