<svg width="91" height="90" viewBox="0 0 91 90" fill="none" xmlns="http://www.w3.org/2000/svg">
<rect x="0.5" width="90" height="90" rx="20" fill="#3A85FF" fill-opacity="0.1"/>
<path d="M63.8286 37.125C59.9929 37.7571 53.7357 37.9286 49.5786 30.0429C45.1214 21.5679 37.9214 21.3107 33.7107 22.0821C31.6643 22.4571 30.1321 24.1714 30.1321 25.8321V46.8964C31.3429 47.3571 32.6393 46.875 32.9714 46.8107C33.0571 46.7893 33.1321 46.7786 33.2286 46.7571C35.9071 46.1679 38.7357 45.8893 45.7429 49.2536C54.5286 53.4643 62.2214 45.7071 65.2 40.3071C65.4143 39.9321 66.1321 38.1429 66.1321 36.4286C65.0929 36.8571 63.8286 37.125 63.8286 37.125ZM27.5714 21H25.8571C25.3857 21 25 21.3857 25 21.8571V68.1429C25 68.6143 25.3857 69 25.8571 69H27.5714C28.0429 69 28.4286 68.6143 28.4286 68.1429V21.8571C28.4286 21.3857 28.0429 21 27.5714 21Z" fill="#3A85FF"/>
</svg>
